<svg width="24" height="24" viewBox="0 0 24 24" xmlns="http://www.w3.org/2000/svg">
    <g fill="none" fill-rule="evenodd">
        <path d="M0 0h24v24H0z"/>
        <path d="M24 12c0-6.627-5.373-12-12-12S0 5.373 0 12s5.373 12 12 12 12-5.373 12-12zm-1.2 0c0 5.965-4.835 10.8-10.8 10.8-5.965 0-10.8-4.835-10.8-10.8C1.2 6.035 6.035 1.2 12 1.2c5.965 0 10.8 4.835 10.8 10.8z" fill="#050505"/>
        <path d="m17.354 12.146.003-.06a.603.603 0 0 1-.14.386l-.036.038-4.071 4.071a.6.6 0 0 1-.884-.81l.035-.038 3.048-3.048H6.986a.6.6 0 0 1-.045-1.198l.045-.001h8.323l-3.048-3.047a.6.6 0 0 1-.035-.81l.035-.039a.6.6 0 0 1 .81-.035l.039.035 4.071 4.071.06.07.003.004-.063-.074a.602.602 0 0 1 .173.485z" fill="#050505"/>
    </g>
</svg>
