<svg id="Layer_1" data-name="Layer 1" xmlns="http://www.w3.org/2000/svg" viewBox="0 0 140.07 108.23" height="100px" width="100px" transform="rotate(0) scale(1, 1)">
  <defs>
    <style>.cls-1 { fill: #000000; stroke-width: 0px; }</style>
  </defs>
  <path class="cls-1" d="M70.01,41.4c-1.76-7.31-9.64-15.22-17.31-17.74-2.38,2.25-5.01,3.83-7.53,4.2,8.1-1.18,23.12,9.03,25.03,17.02.4-1.74-.19-3.48-.19-3.48"/>
  <path class="cls-1" d="M70.39,41.4c1.76-7.31,9.64-15.22,17.31-17.74,2.38,2.25,5.01,3.83,7.53,4.2-8.1-1.18-23.12,9.03-25.03,17.02-.4-1.74.19-3.48.19-3.48"/>
  <path class="cls-1" d="M34.82,55.36s4.2-4.78,17.6-5.19c13.41-.41,17.76,4.64,17.76,4.64,0,0-7.97-13.62-30.93-8.55,0,0-.93,5.89-4.43,9.09"/>
  <path class="cls-1" d="M39.31,40.61s5.08-2.98,16.85.8c11.77,3.78,14.03,9.66,14.03,9.66,0,0-2.83-14.67-24.3-17.23,0,0-2.58,4.98-6.58,6.77"/>
  <path class="cls-1" d="M105.57,55.36s-4.2-4.78-17.6-5.19c-13.41-.41-17.76,4.64-17.76,4.64,0,0,7.97-13.62,30.93-8.55,0,0,.93,5.89,4.43,9.09"/>
  <path class="cls-1" d="M101.07,40.61s-5.08-2.98-16.84.8c-11.77,3.78-14.03,9.66-14.03,9.66,0,0,2.83-14.67,24.3-17.23,0,0,2.58,4.98,6.58,6.77"/>
  <path class="cls-1" d="M31.61,69.78c-.1,0-.16-.05-.16-.15v-.85c-.49.5-1.36,1.08-2.84,1.08-2.38,0-4.21-1.76-4.21-4.53s2.04-4.42,4.18-4.42c1.58,0,2.35.67,2.69,1.16v-.94c-.02-.1.04-.15.14-.15h.69c.1,0,.16.05.16.15v2.52c0,.1-.06.15-.16.15h-.77c-.1,0-.15-.05-.15-.15v-.15c0-.65-1.02-1.59-2.55-1.59s-3.09,1.3-3.09,3.45c0,2.28,1.58,3.47,3.11,3.47s2.36-.69,2.72-1.24v-.96h-2.28c-.1,0-.15-.06-.15-.16v-.56c0-.1.05-.15.15-.15h3.17c.1,0,.15.05.15.15v3.71c0,.1-.05.15-.15.15h-.65Z"/>
  <path class="cls-1" d="M37.96,65.38c1.26,0,2.08-.43,2.08-1.7,0-1.35-.97-1.76-2.08-1.76h-1.57v3.47h1.57ZM40.6,69.78c-.35,0-.55-.22-.73-.59l-1.15-2.34c-.17-.37-.34-.6-.77-.61h-1.56v2.62h1.1c.1,0,.15.05.15.15v.62c0,.1-.06.15-.15.15h-3.1c-.1,0-.16-.05-.16-.15v-.62c0-.1.05-.15.16-.15h.93v-6.96h-.93c-.1,0-.16-.05-.16-.15v-.62c0-.1.05-.15.16-.15h3.77c1.69,0,2.95.91,2.95,2.65,0,1.27-.64,2.09-1.8,2.4.21.16.37.43.57.82l1.03,2.01h.75c.1,0,.15.05.15.15v.62c0,.1-.06.15-.15.15h-1.07Z"/>
  <path class="cls-1" d="M43.57,69.78c-.1,0-.16-.05-.16-.15v-.62c0-.1.05-.15.16-.15h.93v-6.96h-.93c-.1,0-.16-.05-.16-.15v-.62c0-.1.05-.15.16-.15h6.5c.1,0,.16.05.16.15v1.97c0,.1-.06.16-.16.16h-.66c-.1,0-.15-.06-.15-.16v-1.2h-3.7v3.04h3.1c.1,0,.16.05.16.15v.62c0,.1-.06.15-.16.15h-3.1v3h3.69v-1.2c0-.1.06-.15.16-.15h.66c.1,0,.16.05.16.15v1.97c0,.1-.06.15-.16.15h-6.5Z"/>
  <path class="cls-1" d="M52.18,69.78c-.1,0-.16-.05-.16-.15v-.62c0-.1.05-.15.16-.15h.93v-6.96h-.93c-.1,0-.16-.05-.16-.15v-.62c0-.1.05-.15.16-.15h6.5c.1,0,.16.05.16.15v1.97c0,.1-.06.16-.16.16h-.66c-.1,0-.15-.06-.15-.16v-1.2h-3.7v3.04h3.1c.1,0,.16.05.16.15v.62c0,.1-.06.15-.16.15h-3.1v3h3.69v-1.2c0-.1.06-.15.16-.15h.66c.1,0,.16.05.16.15v1.97c0,.1-.06.15-.16.15h-6.5Z"/>
  <path class="cls-1" d="M67.57,69.78c-.34,0-.48-.15-.62-.38l-3.54-5.54c-.36-.54-.61-1.03-.61-1.03h-.03v6.03h.94c.1,0,.16.05.16.15v.62c0,.1-.06.15-.16.15h-2.94c-.1,0-.16-.05-.16-.15v-.62c0-.1.05-.15.16-.15h.93v-6.96h-.93c-.1,0-.16-.05-.16-.15v-.62c0-.1.05-.15.16-.15h1.71c.34,0,.49.21.62.42l3.49,5.46c.39.61.7,1.19.7,1.19h.03v-6.15h-.94c-.1,0-.15-.05-.15-.15v-.62c0-.1.05-.15.15-.15h2.95c.1,0,.15.05.15.15v.62c0,.1-.05.15-.15.15h-.94v7.73c0,.1-.06.15-.16.15h-.66Z"/>
  <path class="cls-1" d="M71.39,69.78c-.11,0-.16-.05-.16-.15v-2.87c0-.1.06-.16.16-.16h.77c.09,0,.15.06.15.16v.26c0,.18.65,1.85,2.62,1.85,1.25,0,2.01-.54,2.01-1.48,0-2.02-5.44-.96-5.44-4.1,0-1.33,1.08-2.38,2.87-2.38,1.26,0,2,.43,2.42.97l-.02-.76c0-.1.06-.15.16-.15h.69c.1,0,.15.05.15.15v2.67c0,.1-.05.15-.15.15h-.77c-.1,0-.15-.05-.15-.15v-.34c0-.5-.58-1.53-2.22-1.53-1.1,0-1.8.59-1.8,1.37,0,2.13,5.54,1.09,5.54,4.1,0,1.32-.91,2.47-3.08,2.47-1.7,0-2.61-.92-2.93-1.43v1.2c.01.1-.04.15-.13.15h-.69Z"/>
  <path class="cls-1" d="M83.95,68.87c1.22,0,2.06-.49,2.06-1.68,0-1.03-.72-1.53-1.98-1.53h-1.95v3.21h1.87ZM83.95,64.85c.75-.01,1.58-.4,1.58-1.42,0-1.2-.89-1.52-1.72-1.52h-1.74v2.94h1.87ZM80.08,69.78c-.1,0-.16-.05-.16-.15v-.62c0-.1.05-.15.16-.15h.93v-6.96h-.93c-.1,0-.16-.05-.16-.15v-.62c0-.1.05-.15.16-.15h3.94c1.68,0,2.58.98,2.58,2.35,0,.82-.42,1.47-1.09,1.85,1.18.34,1.57,1.14,1.57,2.08,0,1.47-.96,2.51-3.05,2.51h-3.96Z"/>
  <path class="cls-1" d="M96.04,65.38c0-2.35-1.65-3.49-3.11-3.49s-3.12,1.14-3.12,3.49,1.58,3.5,3.12,3.5,3.11-1.2,3.11-3.5M88.65,65.34c0-2.79,2.06-4.42,4.27-4.42s4.25,1.63,4.25,4.42-1.85,4.53-4.25,4.53-4.27-1.84-4.27-4.53"/>
  <path class="cls-1" d="M102.11,65.38c1.26,0,2.08-.43,2.08-1.7,0-1.35-.97-1.76-2.08-1.76h-1.57v3.47h1.57ZM104.75,69.78c-.35,0-.55-.22-.73-.59l-1.15-2.34c-.17-.37-.34-.6-.77-.61h-1.56v2.62h1.1c.1,0,.15.05.15.15v.62c0,.1-.06.15-.15.15h-3.1c-.1,0-.16-.05-.16-.15v-.62c0-.1.05-.15.16-.15h.93v-6.96h-.93c-.1,0-.16-.05-.16-.15v-.62c0-.1.05-.15.16-.15h3.77c1.69,0,2.95.91,2.95,2.65,0,1.27-.64,2.09-1.8,2.4.21.16.37.43.57.82l1.03,2.01h.75c.1,0,.15.05.15.15v.62c0,.1-.06.15-.15.15h-1.07Z"/>
  <path class="cls-1" d="M114.53,65.38c0-2.35-1.65-3.49-3.11-3.49s-3.12,1.14-3.12,3.49,1.58,3.5,3.12,3.5,3.11-1.2,3.11-3.5M107.14,65.34c0-2.79,2.06-4.42,4.28-4.42s4.25,1.63,4.25,4.42-1.85,4.53-4.25,4.53-4.28-1.84-4.28-4.53"/>
  <path class="cls-1" d="M47.44,82.26c.1.07.09.15.04.24-.2.38-1.2,2.06-3.81,2.06-2.33,0-4.18-1.76-4.18-4.53s1.95-4.42,4.11-4.42c1.62,0,2.41.78,2.76,1.31v-1.09c-.03-.1.04-.15.14-.15h.68c.1,0,.16.05.16.15v2.67c0,.1-.06.16-.16.16h-.77c-.1,0-.15-.06-.15-.16v-.11c0-.65-1.05-1.78-2.6-1.78s-3.04,1.1-3.04,3.45,1.57,3.47,3.08,3.47c1.9,0,2.71-1.05,2.99-1.54.06-.11.15-.15.23-.07l.52.34Z"/>
  <path class="cls-1" d="M56.45,80.07c0-2.35-1.65-3.49-3.11-3.49s-3.12,1.14-3.12,3.49,1.58,3.5,3.12,3.5,3.11-1.2,3.11-3.5M49.06,80.04c0-2.79,2.06-4.42,4.27-4.42s4.25,1.63,4.25,4.42-1.85,4.53-4.25,4.53-4.27-1.84-4.27-4.53"/>
  <path class="cls-1" d="M58.96,84.48c-.1,0-.16-.05-.16-.15v-.62c0-.1.05-.15.16-.15h.93v-6.96h-.93c-.1,0-.16-.05-.16-.15v-.62c0-.1.05-.15.16-.15h2.93c.1,0,.16.06.16.16v.6c0,.1-.06.16-.16.16h-.93v6.96h3.9v-1.2c0-.1.06-.15.16-.15h.66c.1,0,.15.05.15.15v1.96c0,.1-.06.16-.16.16h-6.7Z"/>
  <path class="cls-1" d="M67.3,84.48c-.1,0-.16-.05-.16-.15v-.62c0-.1.05-.15.16-.15h.93v-6.96h-.93c-.1,0-.16-.05-.16-.15v-.62c0-.1.05-.15.16-.15h2.93c.1,0,.16.06.16.16v.6c0,.1-.06.16-.16.16h-.93v6.96h3.9v-1.2c0-.1.06-.15.16-.15h.66c.1,0,.15.05.15.15v1.96c0,.1-.06.16-.16.16h-6.7Z"/>
  <path class="cls-1" d="M75.63,84.48c-.1,0-.16-.05-.16-.15v-.62c0-.1.05-.15.16-.15h.93v-6.96h-.93c-.1,0-.16-.05-.16-.15v-.62c0-.1.05-.15.16-.15h6.5c.1,0,.16.05.16.15v1.97c0,.1-.06.16-.16.16h-.66c-.1,0-.15-.06-.15-.16v-1.2h-3.7v3.04h3.1c.1,0,.16.05.16.15v.62c0,.1-.06.15-.16.15h-3.1v3h3.69v-1.2c0-.1.06-.15.16-.15h.66c.1,0,.16.05.16.15v1.97c0,.1-.06.15-.16.15h-6.5Z"/>
  <path class="cls-1" d="M91.14,84.48c-.1,0-.16-.05-.16-.15v-.85c-.49.5-1.36,1.08-2.84,1.08-2.38,0-4.21-1.76-4.21-4.53s2.05-4.42,4.18-4.42c1.58,0,2.35.67,2.69,1.16v-.94c-.02-.1.04-.15.14-.15h.69c.1,0,.16.05.16.15v2.52c0,.1-.06.15-.16.15h-.77c-.1,0-.15-.05-.15-.15v-.15c0-.65-1.02-1.59-2.55-1.59s-3.09,1.3-3.09,3.45c0,2.28,1.58,3.47,3.11,3.47s2.36-.69,2.72-1.24v-.96h-2.28c-.1,0-.15-.06-.15-.16v-.56c0-.1.05-.15.15-.15h3.17c.1,0,.15.05.15.15v3.71c0,.1-.05.15-.15.15h-.65Z"/>
  <path class="cls-1" d="M93.92,84.48c-.1,0-.16-.05-.16-.15v-.62c0-.1.05-.15.16-.15h.93v-6.96h-.93c-.1,0-.16-.05-.16-.15v-.62c0-.1.05-.15.16-.15h6.5c.1,0,.16.05.16.15v1.97c0,.1-.06.16-.16.16h-.66c-.1,0-.15-.06-.15-.16v-1.2h-3.7v3.04h3.1c.1,0,.16.05.16.15v.62c0,.1-.06.15-.16.15h-3.1v3h3.69v-1.2c0-.1.06-.15.16-.15h.66c.1,0,.16.05.16.15v1.97c0,.1-.06.15-.16.15h-6.5Z"/>
</svg>