<svg width="777" height="890" viewBox="0 0 777 890" fill="none" xmlns="http://www.w3.org/2000/svg">
<path d="M777 8.24909V445.099H0.722656C3.26922 426.711 8.15012 408.494 15.3654 390.793C39.5577 330.817 92.1867 278.23 158.609 246.093C193.837 229.08 232.884 217.738 273.841 214.129C327.107 209.317 387.376 215.16 428.333 187.148C453.162 170.306 465.046 144.7 480.537 121.672C524.466 56.3679 607.017 6.18686 698.693 1.03127C725.007 -0.687256 751.746 2.06238 777 8.24909Z" fill="#DCE7FA"/>
<path d="M777 881.937V445.086H0.722656C3.26922 463.475 8.15012 481.691 15.3654 499.392C39.5577 559.369 92.1867 611.956 158.609 644.092C193.837 661.105 232.884 672.448 273.841 676.057C327.107 680.869 387.376 675.026 428.333 703.038C453.162 719.879 465.046 745.485 480.537 768.514C524.466 833.818 607.017 883.999 698.693 889.154C725.007 890.873 751.746 888.123 777 881.937Z" fill="#DCE7FA"/>
</svg>
